<svg width="30" height="30" viewBox="0 0 30 30" fill="none" xmlns="http://www.w3.org/2000/svg">
<g clip-path="url(#clip0_0_1476)">
<path d="M28.0435 5.84246H25.8598C26.1478 5.3866 26.3379 4.87491 26.3921 4.33373C26.5652 2.60422 25.6544 1.05383 24.1037 0.366468C22.6784 -0.265348 21.0766 -0.0070669 19.9232 1.03907L17.1657 3.53809C16.6287 2.95075 15.8568 2.58161 15 2.58161C14.1417 2.58161 13.3685 2.95192 12.8314 3.54108L10.0704 1.03877C8.91516 -0.00735982 7.31402 -0.264645 5.88932 0.36682C4.33904 1.05424 3.42803 2.60516 3.6017 4.33461C3.65602 4.87537 3.84598 5.38684 4.13397 5.84246H1.9565C0.875918 5.84246 0 6.71844 0 7.79897V10.7338C0 11.274 0.437988 11.712 0.978281 11.712H29.0218C29.562 11.712 30.0001 11.274 30.0001 10.7338V7.79897C30 6.71844 29.1241 5.84246 28.0435 5.84246ZM12.0652 5.51639V5.84246H7.46309C6.24715 5.84246 5.2902 4.70891 5.59389 3.44293C5.72766 2.88541 6.13008 2.41016 6.65057 2.16957C7.36529 1.83922 8.15701 1.94528 8.7573 2.48862L12.066 5.48756C12.0659 5.49723 12.0652 5.50672 12.0652 5.51639ZM24.4508 4.07399C24.3779 5.09076 23.4595 5.84258 22.4401 5.84258H17.9348V5.51651C17.9348 5.50496 17.9341 5.49354 17.934 5.482C18.6835 4.80254 20.3095 3.32879 21.1914 2.5294C21.6926 2.07512 22.3939 1.86307 23.0422 2.05643C23.9725 2.33393 24.5188 3.12506 24.4508 4.07399Z" fill="white"/>
<path d="M1.95654 13.6694V28.0173C1.95654 29.0979 2.83246 29.9738 3.91305 29.9738H13.0435V13.6694H1.95654Z" fill="white"/>
<path d="M16.9565 13.6694V29.9738H26.087C27.1676 29.9738 28.0435 29.0979 28.0435 28.0173V13.6694H16.9565Z" fill="white"/>
</g>
<defs>
<clipPath id="clip0_0_1476">
<rect width="30" height="30" fill="white"/>
</clipPath>
</defs>
</svg>
