<svg width="18" height="18" viewBox="0 0 18 18" fill="none" xmlns="http://www.w3.org/2000/svg">
<path fill-rule="evenodd" clip-rule="evenodd" d="M0 9C0 4.02944 4.02944 0 9 0C13.9706 0 18 4.02944 18 9C18 13.9706 13.9706 18 9 18C4.02944 18 0 13.9706 0 9ZM8.20817 7.67181H9.49701C9.67284 7.67181 9.81537 7.81432 9.81537 7.99015V14.3815C9.81537 14.9132 9.38432 15.3443 8.8526 15.3443C8.32088 15.3443 7.88983 14.9132 7.88983 14.3815V7.99015C7.88983 7.81435 8.03234 7.67181 8.20817 7.67181ZM10.4271 6.17913C10.5351 6.17913 10.6355 6.1239 10.6945 6.03348C10.7882 5.88901 10.6845 5.69824 10.5123 5.69824H7.19394C7.02178 5.69824 6.91809 5.889 7.0117 6.03348C7.0707 6.12387 7.17114 6.17913 7.27915 6.17913H7.90825C8.08403 6.17913 8.22592 6.321 8.22592 6.49681V6.79441C8.22592 7.14046 8.50645 7.42099 8.8525 7.42099C9.19855 7.42099 9.47907 7.14046 9.47907 6.79441V6.49681C9.47907 6.32102 9.62094 6.17913 9.79675 6.17913H10.4271ZM5.01264 3.85993V5.1294C5.01264 5.3052 5.1558 5.44707 5.33158 5.44707H12.3746C12.5504 5.44707 12.6923 5.30518 12.6923 5.1294V3.85993C12.6923 3.68288 12.5504 3.54101 12.3746 3.54101C12.3157 3.54101 12.2679 3.58879 12.2679 3.64774V4.17387C12.2679 4.35972 12.1172 4.51164 11.9301 4.51164H5.7748C5.58895 4.51164 5.43703 4.3597 5.43703 4.17387V3.64645C5.43703 3.5882 5.38981 3.54098 5.33156 3.54098C5.15576 3.54098 5.01264 3.68288 5.01264 3.85993ZM5.58397 4.76903C5.50361 4.76903 5.43705 4.83559 5.43705 4.91595C5.43705 4.99756 5.50358 5.06287 5.58397 5.06287H12.121C12.2026 5.06287 12.2679 4.99758 12.2679 4.91595C12.2679 4.83559 12.2026 4.76903 12.121 4.76903H5.58397ZM11.3839 3.54098C11.7334 3.54098 12.0168 3.82432 12.0168 4.17384C12.0168 4.22156 11.9778 4.26048 11.9301 4.26048H5.7748C5.72711 4.26048 5.68817 4.22156 5.68817 4.17384C5.68817 3.82432 5.97151 3.54098 6.32103 3.54098H11.3839Z" fill="white"/>
</svg>
