<svg width="144" height="24" viewBox="0 0 144 24" fill="none" xmlns="http://www.w3.org/2000/svg">
<path d="M11.1676 22.5879L7.16691 15.617H4.86348V22.5879H0.0141602V1.37207H8.50047C10.521 1.37207 12.2385 2.07926 13.6529 3.49365C15.0673 4.90803 15.7745 6.6255 15.7745 8.64605C15.7745 9.9392 15.4108 11.1414 14.6834 12.2527C13.9762 13.3438 13.0366 14.1925 11.8647 14.7986L16.3806 22.5879H11.1676ZM4.86348 5.91831V11.3738H8.50047C9.16725 11.3738 9.73301 11.1111 10.1977 10.5858C10.6827 10.0604 10.9251 9.41386 10.9251 8.64605C10.9251 7.87824 10.6827 7.23167 10.1977 6.70632C9.73301 6.18098 9.16725 5.91831 8.50047 5.91831H4.86348Z" fill="white"/>
<path d="M44.2713 22.5879L43.2105 19.2539H35.3304L34.2696 22.5879H28.9657L36.179 1.37207H42.3619L49.5753 22.5879H44.2713ZM36.7852 14.7077H41.7557L39.2705 6.91848L36.7852 14.7077Z" fill="white"/>
<path d="M69.0237 17.9204H77.2978V22.5879H62.7499V18.8296L70.8725 6.03954H62.9014V1.37207H77.1463V5.13029L69.0237 17.9204Z" fill="white"/>
<path d="M109.171 19.8298C107.03 21.9514 104.423 23.0122 101.352 23.0122C98.2807 23.0122 95.6742 21.9514 93.5324 19.8298C91.3906 17.7082 90.3197 15.0916 90.3197 11.98C90.3197 8.86831 91.3906 6.2517 93.5324 4.13012C95.6742 2.00854 98.2807 0.947754 101.352 0.947754C104.423 0.947754 107.03 2.00854 109.171 4.13012C111.313 6.2517 112.384 8.86831 112.384 11.98C112.384 15.0916 111.313 17.7082 109.171 19.8298ZM96.9269 16.5262C98.1191 17.6981 99.5941 18.2841 101.352 18.2841C103.11 18.2841 104.575 17.6981 105.747 16.5262C106.939 15.3543 107.535 13.8389 107.535 11.98C107.535 10.1211 106.939 8.60564 105.747 7.43372C104.575 6.2618 103.11 5.67584 101.352 5.67584C99.5941 5.67584 98.1191 6.2618 96.9269 7.43372C95.755 8.60564 95.1691 10.1211 95.1691 11.98C95.1691 13.8389 95.755 15.3543 96.9269 16.5262Z" fill="white"/>
<path d="M138.391 22.5879L134.391 15.617H132.087V22.5879H127.238V1.37207H135.724C137.745 1.37207 139.462 2.07926 140.877 3.49365C142.291 4.90803 142.998 6.6255 142.998 8.64605C142.998 9.9392 142.634 11.1414 141.907 12.2527C141.2 13.3438 140.26 14.1925 139.088 14.7986L143.604 22.5879H138.391ZM132.087 5.91831V11.3738H135.724C136.391 11.3738 136.957 11.1111 137.421 10.5858C137.906 10.0604 138.149 9.41386 138.149 8.64605C138.149 7.87824 137.906 7.23167 137.421 6.70632C136.957 6.18098 136.391 5.91831 135.724 5.91831H132.087Z" fill="white"/>
</svg>
