<svg width="24" height="24" viewBox="0 0 24 24" fill="none" xmlns="http://www.w3.org/2000/svg">
<path d="M21.774 5.91534C21.1946 4.88455 20.5657 4.69494 19.2852 4.62284C18.006 4.53605 14.7895 4.5 12.0028 4.5C9.21089 4.5 5.99299 4.53605 4.71518 4.62151C3.43736 4.69494 2.80714 4.88321 2.22231 5.91534C1.62546 6.9448 1.31836 8.71798 1.31836 11.8397C1.31836 11.8424 1.31836 11.8438 1.31836 11.8438C1.31836 11.8464 1.31836 11.8478 1.31836 11.8478V11.8504C1.31836 14.9588 1.62546 16.7454 2.22231 17.7641C2.80714 18.7949 3.43603 18.9819 4.71384 19.0687C5.99299 19.1434 9.21089 19.1875 12.0028 19.1875C14.7895 19.1875 18.006 19.1434 19.2865 19.07C20.567 18.9832 21.1959 18.7963 21.7754 17.7655C22.3776 16.7467 22.682 14.9602 22.682 11.8518C22.682 11.8518 22.682 11.8478 22.682 11.8451C22.682 11.8451 22.682 11.8424 22.682 11.8411C22.682 8.71798 22.3776 6.9448 21.774 5.91534ZM9.32972 15.8494V7.83807L16.0059 11.8438L9.32972 15.8494Z" fill="white"/>
</svg>
