<svg width="120" height="25" viewBox="0 0 120 25" fill="none" xmlns="http://www.w3.org/2000/svg">
<path d="M5.44376 12.066L2.73495 14.7758L0 12.066L2.73395 9.33201L5.44376 12.066ZM12.066 5.44376L16.7315 10.1093L19.4664 7.37632L12.066 0L4.6655 7.40046L7.40046 10.1334L12.066 5.44376ZM21.398 9.33201L18.6882 12.066L21.4221 14.7999L24.155 12.066L21.398 9.33201ZM12.066 18.6882L7.40046 13.9985L4.6655 16.7325L12.066 24.1319L19.4664 16.7315L16.7315 13.9985L12.066 18.6882ZM12.066 14.7768L14.7999 12.0418L12.066 9.33302L9.33201 12.066L12.066 14.7758V14.7768ZM40.8171 15.0583V15.0121C40.8171 13.2444 39.874 12.3485 38.3426 11.7593C39.2848 11.2415 40.0861 10.3918 40.0861 8.9077V8.86144C40.0861 6.7871 38.413 5.44376 35.7263 5.44376H29.5757V18.665H35.8681C38.8604 18.6882 40.8171 17.4625 40.8171 15.0593V15.0583ZM37.1873 9.40341C37.1873 10.3928 36.3859 10.793 35.0898 10.793H32.4041V7.98867H35.2789C36.5046 7.98867 37.1873 8.48338 37.1873 9.35615V9.40341ZM37.9183 14.6823C37.9183 15.6717 37.141 16.1201 35.8671 16.1201H32.4041V13.2203H35.7736C37.2587 13.2203 37.9183 13.7632 37.9183 14.6581V14.6823ZM46.9205 18.6882V5.44376H43.9985V18.665H46.9205V18.6882V18.6882ZM62.569 18.6882V5.44376H59.6933V13.5983L53.4954 5.44376H50.8087V18.665H53.6845V10.2752L60.0945 18.6882H62.568H62.569ZM78.6872 18.6882L73.0091 5.37337H70.3234L64.6434 18.6882H67.6367L68.8383 15.7189H74.4238L75.6254 18.6882H78.6892H78.6872ZM73.3852 13.1499H69.874L71.6416 8.86144L73.3852 13.1499V13.1499ZM92.569 18.6882V5.44376H89.6933V13.5983L83.4954 5.44376H80.8087V18.665H83.6845V10.2752L90.0945 18.6882H92.568H92.569ZM107.58 16.5434L105.719 14.6823C104.681 15.6244 103.762 16.2368 102.231 16.2368C99.9685 16.2368 98.3899 14.3515 98.3899 12.0891V12.0187C98.3899 9.75633 99.9916 7.89516 102.231 7.89516C103.55 7.89516 104.588 8.46025 105.624 9.37927L107.486 7.23455C106.261 6.03298 104.776 5.18434 102.278 5.18434C98.225 5.18434 95.3734 8.27122 95.3734 12.0187V12.066C95.3734 15.8597 98.2712 18.8762 102.16 18.8762C104.705 18.9003 106.214 18.0044 107.58 16.5434V16.5434ZM120 18.6882V16.096H112.812V13.3148H119.057V10.7226H112.812V8.03593H119.905V5.44376H109.937V18.665H120V18.6882V18.6882Z" fill="black"/>
</svg>
